<?xml version="1.0" encoding="utf-8"?>
<!-- Generator: Adobe Illustrator 15.1.0, SVG Export Plug-In . SVG Version: 6.00 Build 0)  -->
<!DOCTYPE svg PUBLIC "-//W3C//DTD SVG 1.1//EN" "http://www.w3.org/Graphics/SVG/1.1/DTD/svg11.dtd">
<svg version="1.1" id="Layer_1" xmlns="http://www.w3.org/2000/svg" xmlns:xlink="http://www.w3.org/1999/xlink" x="0px" y="0px"
	 width="146.55px" height="33.535px" viewBox="0 0 146.55 33.535" enable-background="new 0 0 146.55 33.535" xml:space="preserve">
<path fill="#CD0058" d="M0.954,28.648c-0.349-0.25-0.399-0.599-0.15-0.998l2.743-4.588c0.2-0.299,0.599-0.449,0.948-0.1
	c1.396,1.297,2.992,2.095,4.639,2.095c1.097,0,2.044-0.25,2.593-0.699c0.897-0.848,1.147-2.145,1.147-4.188V3.611
	c0-0.399,0.349-0.749,0.748-0.749h5.835c0.399,0,0.748,0.35,0.748,0.749v17.256c0,4.139-1.347,6.933-3.591,8.627
	c-1.895,1.396-4.438,2.095-7.381,2.095C5.941,31.54,2.999,30.393,0.954,28.648z"/>
<path fill="#CD0058" d="M43.247,20.518l5.386,9.325c0.349,0.6,0.399,1.298-0.399,1.298H41.85c-0.648,0-1.097-0.1-1.396-0.748
	l-4.439-8.479h-4.438v8.479c0,0.399-0.349,0.748-0.748,0.748h-5.835c-0.399,0-0.748-0.349-0.748-0.748V3.611
	c0-0.399,0.349-0.749,0.748-0.749h12.568c2.792,0,5.386,0.599,7.281,2.045c2.095,1.646,3.291,4.439,3.291,7.431
	c0,2.494-0.848,4.988-3.092,6.983C44.394,19.77,43.845,20.219,43.247,20.518z M31.526,9.047v6.733h4.887
	c1.297,0,2.295-0.15,2.943-0.598c0.798-0.499,1.297-1.447,1.297-2.743c0-1.248-0.4-2.095-1.148-2.644
	c-0.648-0.499-1.596-0.698-2.443-0.698h-5.536V9.047z"/>
<path fill="#CD0058" d="M59.255,30.393c0,0.399-0.349,0.748-0.748,0.748h-5.835c-0.399,0-0.748-0.349-0.748-0.748V3.611
	c0-0.399,0.349-0.749,0.748-0.749h19.151c0.399,0,0.748,0.35,0.748,0.749v4.987c0,0.399-0.349,0.749-0.748,0.749H59.255v4.339
	h10.823c0.398,0,0.748,0.349,0.748,0.748v4.986c0,0.399-0.35,0.749-0.748,0.749H59.255V30.393z"/>
<path fill="#1D1E1C" d="M80.551,9.596c-0.05-0.05-0.05-0.1-0.05-0.15L80.8,8.948c0.05-0.05,0.1-0.1,0.15-0.05
	c0.448,0.399,0.896,0.598,1.396,0.598s0.997-0.15,1.297-0.499c0.299-0.299,0.499-0.798,0.499-1.496V3.162
	c0-0.049,0.05-0.099,0.1-0.099h0.648c0.05,0,0.1,0.05,0.1,0.099v4.439c0,0.948-0.3,1.596-0.748,1.995
	c-0.498,0.449-1.147,0.648-1.846,0.648C81.649,10.294,81,9.995,80.551,9.596z"/>
<path fill="#1D1E1C" d="M89.728,10.294c-2.046,0-3.69-1.596-3.69-3.641c0-2.045,1.645-3.641,3.69-3.641
	c1.994,0,3.689,1.596,3.689,3.641C93.417,8.698,91.722,10.294,89.728,10.294z M89.728,3.811c-1.597,0-2.843,1.296-2.843,2.843
	c0,1.596,1.246,2.842,2.843,2.842c1.595,0,2.793-1.296,2.793-2.842C92.521,5.107,91.273,3.811,89.728,3.811z"/>
<path fill="#1D1E1C" d="M94.167,9.596c-0.05-0.05-0.101-0.1-0.05-0.15l0.249-0.548c0-0.05,0.05-0.05,0.149-0.05
	c0.449,0.299,1.098,0.699,2.045,0.699c0.498,0,0.898-0.1,1.147-0.299c0.299-0.25,0.448-0.599,0.448-0.998
	c0-0.548-0.398-0.848-0.897-1.097c-0.599-0.25-1.297-0.35-2.045-0.749c-0.598-0.299-1.047-0.748-1.047-1.545
	c0-0.549,0.199-1.047,0.598-1.347c0.449-0.349,1.047-0.548,1.896-0.548c0.848,0,1.596,0.25,2.045,0.499
	c0.05,0.05,0.05,0.1,0.05,0.149l-0.249,0.5c-0.05,0.05-0.1,0.099-0.15,0.05c-0.498-0.299-1.146-0.499-1.745-0.499
	s-0.997,0.15-1.247,0.349c-0.199,0.199-0.349,0.449-0.349,0.798c0,0.499,0.399,0.798,1.047,1.047
	c0.698,0.25,1.446,0.349,2.095,0.748c0.499,0.299,0.948,0.748,0.948,1.546c0,0.698-0.3,1.196-0.749,1.596
	c-0.449,0.349-1.047,0.499-1.795,0.499C95.414,10.294,94.665,9.895,94.167,9.596z"/>
<path fill="#1D1E1C" d="M104.989,3.113c0.05,0,0.1,0.049,0.1,0.1v0.549c0,0.05-0.05,0.1-0.1,0.1h-4.14v2.444h3.591
	c0.049,0,0.1,0.05,0.1,0.099v0.549c0,0.05-0.051,0.1-0.1,0.1h-3.591v2.443h4.14c0.05,0,0.1,0.05,0.1,0.1v0.548
	c0,0.05-0.05,0.1-0.1,0.1h-4.888c-0.05,0-0.1-0.05-0.1-0.1V3.262c0-0.05,0.05-0.1,0.1-0.1h4.888V3.113z"/>
<path fill="#1D1E1C" d="M108.878,3.113c0.599,0,1.146,0.1,1.646,0.499s0.848,1.047,0.848,1.845s-0.349,1.497-0.897,1.895
	c-0.498,0.35-1.048,0.449-1.646,0.449h-1.945v2.344c0,0.05-0.05,0.1-0.1,0.1h-0.647c-0.051,0-0.101-0.05-0.101-0.1V3.262
	c0-0.05,0.05-0.1,0.101-0.1h2.742V3.113z M109.875,4.16c-0.299-0.25-0.698-0.299-1.146-0.299h-1.896v3.192h1.796
	c0.448,0,0.848-0.05,1.197-0.299c0.398-0.25,0.647-0.748,0.647-1.297C110.474,4.858,110.275,4.41,109.875,4.16z"/>
<path fill="#1D1E1C" d="M118.105,3.113c0.05,0,0.1,0.049,0.1,0.1v6.882c0,0.05-0.05,0.1-0.1,0.1h-0.648c-0.05,0-0.1-0.05-0.1-0.1
	V7.003h-4.239v3.092c0,0.05-0.05,0.1-0.1,0.1h-0.648c-0.05,0-0.1-0.05-0.1-0.1V3.212c0-0.05,0.05-0.1,0.1-0.1h0.648
	c0.05,0,0.1,0.049,0.1,0.1v3.042h4.239V3.212c0-0.05,0.05-0.1,0.1-0.1H118.105z"/>
<path fill="#1D1E1C" d="M84.74,17.724l1.996,2.645c0.049,0.1,0.049,0.149-0.051,0.149h-0.698c-0.1,0-0.149,0-0.2-0.1l-1.944-2.643
	h-1.795v2.643c0,0.05-0.05,0.1-0.101,0.1h-0.647c-0.051,0-0.1-0.05-0.1-0.1v-6.883c0-0.05,0.049-0.1,0.1-0.1h2.793
	c0.698,0,1.246,0.1,1.745,0.399c0.499,0.349,0.848,0.948,0.848,1.746c0,0.748-0.299,1.347-0.798,1.695
	C85.489,17.576,85.139,17.675,84.74,17.724z M81.998,14.184v2.893h1.895c0.499,0,0.947-0.049,1.247-0.249
	c0.35-0.2,0.599-0.598,0.599-1.197c0-0.598-0.249-0.997-0.599-1.196c-0.349-0.2-0.748-0.25-1.197-0.25H81.998z"/>
<path fill="#1D1E1C" d="M91.024,20.618c-2.045,0-3.689-1.596-3.689-3.64c0-2.045,1.645-3.641,3.689-3.641
	c1.995,0,3.69,1.595,3.69,3.641C94.714,19.072,93.019,20.618,91.024,20.618z M91.024,14.134c-1.596,0-2.843,1.297-2.843,2.843
	c0,1.596,1.247,2.842,2.843,2.842c1.597,0,2.793-1.297,2.793-2.842C93.817,15.431,92.621,14.134,91.024,14.134z"/>
<path fill="#1D1E1C" d="M104.489,13.586c0-0.05,0.051-0.1,0.101-0.1h0.648c0.05,0,0.1,0.05,0.1,0.1v4.388
	c0,0.898-0.249,1.496-0.648,1.945c-0.498,0.549-1.247,0.748-1.945,0.748c-0.448,0-0.896-0.099-1.296-0.349
	c-0.35-0.249-0.698-0.599-0.898-1.147c-0.198,0.549-0.548,0.898-0.897,1.147c-0.398,0.25-0.848,0.349-1.297,0.349
	c-0.747,0-1.445-0.199-1.945-0.748c-0.398-0.449-0.647-1.047-0.647-1.945v-4.388c0-0.05,0.049-0.1,0.101-0.1h0.598
	c0.05,0,0.1,0.05,0.1,0.1v4.388c0,0.648,0.149,1.098,0.449,1.397c0.35,0.398,0.848,0.498,1.346,0.498
	c0.449,0,0.849-0.149,1.147-0.399c0.399-0.349,0.599-0.947,0.599-1.645v-4.24c0-0.05,0.05-0.1,0.1-0.1h0.648
	c0.049,0,0.1,0.05,0.1,0.1v4.24c0,0.748,0.25,1.296,0.648,1.645c0.3,0.25,0.698,0.399,1.146,0.399c0.499,0,0.998-0.149,1.347-0.498
	c0.249-0.3,0.449-0.749,0.449-1.397v-4.388H104.489z"/>
<path fill="#1D1E1C" d="M111.921,13.586c0-0.05,0.049-0.1,0.099-0.1h0.599c0.05,0,0.101,0.05,0.101,0.1v6.882
	c0,0.05-0.051,0.101-0.101,0.101h-0.599c-0.099,0-0.099,0-0.199-0.101l-4.438-5.586v5.636c0,0.051-0.05,0.1-0.1,0.1h-0.6
	c-0.049,0-0.099-0.049-0.099-0.1v-6.882c0-0.05,0.05-0.1,0.099-0.1h0.55c0.1,0,0.1,0,0.199,0.1l4.438,5.636v-5.686H111.921z"/>
<path fill="#1D1E1C" d="M119.052,13.486c0.051,0,0.1,0.05,0.1,0.1v0.548c0,0.05-0.049,0.1-0.1,0.1h-2.394v6.234
	c0,0.05-0.05,0.101-0.1,0.101h-0.599c-0.05,0-0.1-0.051-0.1-0.101v-6.234h-2.395c-0.049,0-0.1-0.05-0.1-0.1v-0.548
	c0-0.05,0.051-0.1,0.1-0.1H119.052z"/>
<path fill="#1D1E1C" d="M123.491,17.724l1.995,2.645c0.051,0.1,0.051,0.149-0.05,0.149h-0.698c-0.1,0-0.149,0-0.199-0.1
	l-1.945-2.643h-1.795v2.643c0,0.05-0.051,0.1-0.1,0.1h-0.649c-0.049,0-0.1-0.05-0.1-0.1v-6.883c0-0.05,0.051-0.1,0.1-0.1h2.793
	c0.698,0,1.247,0.1,1.746,0.399c0.499,0.349,0.848,0.948,0.848,1.746c0,0.748-0.299,1.347-0.798,1.695
	C124.24,17.576,123.94,17.675,123.491,17.724z M120.798,14.184v2.893h1.895c0.499,0,0.947-0.049,1.247-0.249
	c0.35-0.2,0.599-0.598,0.599-1.197c0-0.598-0.249-0.997-0.599-1.196c-0.349-0.2-0.748-0.25-1.196-0.25H120.798z"/>
<path fill="#1D1E1C" d="M131.322,13.486c0.049,0,0.099,0.05,0.099,0.1v0.548c0,0.05-0.05,0.1-0.099,0.1h-4.09v2.444h3.591
	c0.05,0,0.099,0.049,0.099,0.1v0.549c0,0.05-0.049,0.1-0.099,0.1h-3.591v2.443h4.139c0.05,0,0.101,0.05,0.101,0.101v0.548
	c0,0.051-0.051,0.1-0.101,0.1h-4.887c-0.05,0-0.1-0.049-0.1-0.1v-6.882c0-0.05,0.05-0.1,0.1-0.1h4.838V13.486z"/>
<path fill="#1D1E1C" d="M137.356,13.486c0.05,0,0.1,0.05,0.1,0.1v0.548c0,0.05-0.05,0.1-0.1,0.1h-4.14v2.444h3.591
	c0.05,0,0.1,0.049,0.1,0.1v0.549c0,0.05-0.05,0.1-0.1,0.1h-3.591v2.443h4.14c0.05,0,0.1,0.05,0.1,0.101v0.548
	c0,0.051-0.05,0.1-0.1,0.1h-4.888c-0.05,0-0.1-0.049-0.1-0.1v-6.882c0-0.05,0.05-0.1,0.1-0.1h4.888V13.486z"/>
<path fill="#CD0058" d="M81.998,30.792c0,0.05-0.051,0.099-0.1,0.099h-0.649c-0.049,0-0.099-0.049-0.099-0.099V23.91
	c0-0.051,0.05-0.1,0.099-0.1h4.538c0.051,0,0.101,0.049,0.101,0.1v0.549c0,0.05-0.05,0.1-0.101,0.1h-3.789v2.444h3.291
	c0.05,0,0.1,0.049,0.1,0.099v0.549c0,0.051-0.05,0.1-0.1,0.1h-3.291V30.792z"/>
<path fill="#CD0058" d="M90.026,30.991c-2.044,0-3.689-1.596-3.689-3.64c0-2.045,1.646-3.642,3.689-3.642
	c1.995,0,3.691,1.597,3.691,3.642C93.717,29.446,92.021,30.991,90.026,30.991z M90.026,24.508c-1.596,0-2.843,1.296-2.843,2.843
	c0,1.597,1.247,2.843,2.843,2.843c1.597,0,2.793-1.297,2.793-2.843C92.819,25.804,91.574,24.508,90.026,24.508z"/>
<path fill="#CD0058" d="M99.902,23.959c0-0.05,0.05-0.101,0.1-0.101h0.647c0.051,0,0.101,0.051,0.101,0.101v4.189
	c0,0.799-0.25,1.496-0.698,1.995c-0.498,0.549-1.297,0.897-2.294,0.897c-0.998,0-1.796-0.3-2.295-0.897
	c-0.448-0.499-0.698-1.196-0.698-1.995v-4.189c0-0.05,0.051-0.101,0.101-0.101h0.598c0.051,0,0.1,0.051,0.1,0.101v4.09
	c0,0.698,0.2,1.247,0.55,1.596c0.349,0.447,0.946,0.647,1.596,0.647c0.698,0,1.246-0.2,1.646-0.647
	c0.35-0.399,0.549-0.947,0.549-1.596V23.959z"/>
<path fill="#CD0058" d="M107.283,23.959c0-0.05,0.05-0.101,0.1-0.101h0.599c0.05,0,0.101,0.051,0.101,0.101v6.883
	c0,0.049-0.051,0.1-0.101,0.1h-0.599c-0.1,0-0.1,0-0.199-0.1l-4.439-5.586v5.586c0,0.049-0.049,0.1-0.1,0.1h-0.598
	c-0.05,0-0.101-0.051-0.101-0.1v-6.883c0-0.05,0.051-0.101,0.101-0.101h0.548c0.101,0,0.101,0,0.2,0.101l4.438,5.635v-5.635H107.283
	z"/>
<path fill="#CD0058" d="M114.165,30.393c-0.698,0.399-1.496,0.498-2.294,0.498h-2.394c-0.051,0-0.1-0.049-0.1-0.099V23.91
	c0-0.051,0.049-0.1,0.1-0.1h2.543c1.148,0,2.195,0.299,2.942,1.097c0.499,0.549,0.848,1.347,0.848,2.394
	C115.81,28.748,115.263,29.794,114.165,30.393z M110.225,30.194h1.546c0.699,0,1.347-0.102,1.846-0.399
	c0.848-0.449,1.297-1.296,1.297-2.443c0-0.849-0.249-1.496-0.648-1.945c-0.55-0.599-1.348-0.897-2.395-0.897h-1.646V30.194
	L110.225,30.194z"/>
<path fill="#CD0058" d="M122.494,30.792c0,0.05-0.05,0.099-0.1,0.099h-0.648c-0.05,0-0.1-0.049-0.1-0.099v-2.345h-3.99v2.345
	c0,0.05-0.05,0.099-0.1,0.099h-0.599c-0.05,0-0.099-0.049-0.099-0.099v-4.039c0-0.799,0.249-1.647,0.896-2.245
	c0.449-0.449,1.098-0.799,1.945-0.799s1.496,0.301,1.945,0.799c0.598,0.598,0.848,1.446,0.848,2.245V30.792L122.494,30.792z
	 M118.205,25.106c-0.349,0.4-0.549,1.048-0.549,1.696v0.898h3.99v-0.898c0-0.648-0.2-1.296-0.549-1.696
	c-0.35-0.349-0.848-0.598-1.446-0.598S118.553,24.757,118.205,25.106z"/>
<path fill="#CD0058" d="M128.478,23.859c0.051,0,0.1,0.051,0.1,0.101v0.549c0,0.05-0.049,0.1-0.1,0.1h-2.395v6.234
	c0,0.049-0.049,0.1-0.099,0.1h-0.599c-0.05,0-0.099-0.051-0.099-0.1v-6.234h-2.396c-0.05,0-0.099-0.05-0.099-0.1v-0.549
	c0-0.05,0.049-0.101,0.099-0.101H128.478z"/>
<path fill="#CD0058" d="M130.174,23.859c0.05,0,0.1,0.051,0.1,0.101v6.883c0,0.049-0.05,0.1-0.1,0.1h-0.648
	c-0.05,0-0.101-0.051-0.101-0.1v-6.883c0-0.05,0.051-0.101,0.101-0.101H130.174z"/>
<path fill="#CD0058" d="M135.012,30.991c-2.045,0-3.69-1.596-3.69-3.64c0-2.045,1.646-3.642,3.69-3.642
	c1.994,0,3.69,1.597,3.69,3.642C138.703,29.446,137.057,30.991,135.012,30.991z M135.012,24.508c-1.596,0-2.843,1.296-2.843,2.843
	c0,1.597,1.247,2.843,2.843,2.843s2.792-1.297,2.792-2.843C137.854,25.804,136.608,24.508,135.012,24.508z"/>
<path fill="#CD0058" d="M145.085,23.959c0-0.05,0.051-0.101,0.101-0.101h0.599c0.05,0,0.1,0.051,0.1,0.101v6.883
	c0,0.049-0.05,0.1-0.1,0.1h-0.599c-0.101,0-0.101,0-0.2-0.1l-4.438-5.586v5.586c0,0.049-0.05,0.1-0.099,0.1h-0.599
	c-0.051,0-0.101-0.051-0.101-0.1v-6.883c0-0.05,0.05-0.101,0.101-0.101h0.548c0.1,0,0.1,0,0.199,0.101l4.439,5.635v-5.635H145.085z"
	/>
</svg>
